<svg width="24" height="24" viewBox="0 0 24 24" fill="none" xmlns="http://www.w3.org/2000/svg">
<path d="M17.3125 14.5C16.7949 14.5 16.375 14.9199 16.375 15.4375V19.8125C16.375 19.9848 16.2348 20.125 16.0625 20.125H4.1875C4.01523 20.125 3.875 19.9848 3.875 19.8125V7.9375C3.875 7.76523 4.01523 7.625 4.1875 7.625H8.5625C9.08203 7.625 9.5 7.20703 9.5 6.6875C9.5 6.16797 9.08203 5.75 8.5625 5.75H4.1875C2.98164 5.75 2 6.73047 2 7.9375V19.8125C2 21.0195 2.98164 22 4.1875 22H16.0625C17.2688 22 18.25 21.0187 18.25 19.8125V15.4375C18.25 14.9219 17.832 14.5 17.3125 14.5ZM21.0625 2H14.5C13.9824 2 13.5625 2.41992 13.5625 2.9375C13.5625 3.45508 13.9844 3.875 14.5 3.875H18.8008L9.14844 13.5234C8.78203 13.8898 8.78203 14.4828 9.14844 14.8492C9.33203 15.0352 9.57031 15.125 9.8125 15.125C10.0547 15.125 10.2922 15.0336 10.4754 14.8504L20.125 5.20078V9.5C20.125 10.0176 20.5449 10.4375 21.0625 10.4375C21.5801 10.4375 22 10.0195 22 9.5V2.9375C22 2.41992 21.582 2 21.0625 2Z" fill="#1779BA"/>
</svg>
