<svg width="141" height="79" viewBox="0 0 141 79" fill="none" xmlns="http://www.w3.org/2000/svg">
<path d="M7.1677 17.3445C7.4504 16.8776 7.85666 16.4947 8.34323 16.2366C8.8298 15.9786 9.37849 15.855 9.93087 15.879C12.221 15.879 13.3687 17.5197 13.3687 20.4761V32.9619H19.717V20.7098C19.717 17.6874 20.8647 16.0111 22.992 15.8841V10.0679C21.7887 10.0991 20.6048 10.3729 19.5137 10.8723C18.4225 11.3717 17.4474 12.086 16.6488 12.9709C15.3125 11.0457 13.2601 10.0628 10.5383 10.0628C9.31584 10.0674 8.12981 10.4723 7.1677 11.2133V17.3445Z" fill="white"/>
<path d="M6.36641 10.3904H0.0413571V32.962H6.36641V10.3904Z" fill="white"/>
<path d="M46.3484 15.1755C47.8295 15.112 49.0547 15.4295 49.6208 16.0644L53.3998 12.0413C51.6705 10.6342 49.3028 10.0628 46.7775 10.0628C41.0469 10.0628 37.6582 13.7684 37.2291 16.7222L42.528 17.8499C42.9106 16.1127 44.3891 15.2212 46.3484 15.1755Z" fill="white"/>
<path d="M23.7803 10.0729V15.9146C25.7112 16.1686 26.6805 17.7636 26.6805 20.4863V33.0102H33.0288V20.7098C33.0288 13.9894 28.8543 10.3015 23.7803 10.0729Z" fill="white"/>
<path d="M49.9232 16.9407C49.9232 17.06 49.9232 33 49.9232 33H56.1914V18.8811C56.1914 16.0111 55.3539 13.9665 53.9917 12.5721L49.9232 16.9407Z" fill="white"/>
<path d="M67.1329 25.5355L81.3623 10.3904H73.4631L67.1329 17.1515V25.5355Z" fill="white"/>
<path d="M66.3394 0.187898H66.3497V0.165039H59.9988V33H66.3394V0.187898Z" fill="white"/>
<path d="M49.1167 25.9799C48.7579 26.6653 48.2368 27.2559 47.5971 27.7019C46.9574 28.1479 46.218 28.4362 45.4411 28.5426C44.0065 28.7788 42.5745 28.4969 42.1946 27.4657C41.7655 26.3381 42.4324 24.837 44.7794 24.2274C46.78 23.7195 48.318 23.3766 49.1245 23.1937V18.3096C48.225 18.9319 46.5629 19.3941 43.9678 19.9605C39.098 20.9917 35.6627 22.7264 35.6627 27.6537C35.8514 31.0774 38.3354 33.3759 42.8227 33.3759C45.8883 33.3759 47.9587 32.36 49.1245 31.5269L49.1167 25.9799Z" fill="white"/>
<path d="M40.8195 52.6431C40.9823 52.1352 41.5329 51.5586 42.8046 51.4418V46.4688C37.074 46.5094 34.5099 49.5979 34.2437 52.6431H40.8195Z" fill="white"/>
<path d="M77.2964 57.6517C77.4438 54.6039 79.2686 52.2952 82.3291 52.1098V46.4282C76.0299 46.6263 71.2841 51.4545 71.0851 57.6517H77.2964Z" fill="white"/>
<path d="M68.1694 52.6457V46.7507H63.6124V52.6482L68.1694 52.6457Z" fill="white"/>
<path d="M83.2027 46.4637V52.1276C86.2425 52.3104 88.057 54.6141 88.2044 57.6517H94.3691C94.1727 51.4748 89.4606 46.6567 83.2027 46.4637Z" fill="white"/>
<path d="M62.8163 52.6482V40.2792L56.4731 41.6837V46.7507H53.3222V52.6482H62.8163Z" fill="white"/>
<path d="M81.7604 18.8049H88.1785C88.9152 16.9737 90.4893 15.7368 92.8312 15.7368C95.173 15.7368 96.5766 16.9737 97.2254 18.8049H103.189C102.155 13.7252 98.4015 10.0628 92.8234 10.0628C87.2247 10.0628 82.9443 13.7252 81.7604 18.8049Z" fill="white"/>
<path d="M68.7071 25.0123L74.5591 33H81.9103L72.8118 20.6463L68.7071 25.0123Z" fill="white"/>
<path d="M41.2873 60.0264C41.856 60.2169 42.3574 60.3795 42.7994 60.5344V54.769C41.5251 54.2737 41.0185 53.88 40.8427 53.4356H34.223C34.3083 56.7653 36.5235 58.3756 41.2873 60.0264Z" fill="white"/>
<path d="M43.6136 51.4316H43.7868C45.5522 51.5713 46.3174 52.6508 46.5552 53.4L51.425 52.0412C51.0915 50.0728 48.6695 46.771 43.6136 46.4866V51.4316Z" fill="white"/>
<path d="M103.569 46.7507H97.2383V69.3603H103.569V46.7507Z" fill="white"/>
<path d="M88.1604 58.4314C88.0234 61.4945 86.1934 63.8184 83.1226 64.0013V69.7286C89.4347 69.5331 94.1856 64.6489 94.3691 58.4314H88.1604Z" fill="white"/>
<path d="M104.357 48.0232V53.8038C105.032 52.7397 106.104 52.2393 107.399 52.2393C108.156 52.2122 108.904 52.4076 109.547 52.8006L110.741 46.5628C110.143 46.4681 109.538 46.4214 108.932 46.4231C107.264 46.4173 105.646 46.9831 104.357 48.0232Z" fill="white"/>
<path d="M82.3291 64.0013C79.2609 63.8159 77.4334 61.4919 77.2938 58.4314H71.0903C71.2764 64.6413 76.0247 69.5305 82.3342 69.7286L82.3291 64.0013Z" fill="white"/>
<path d="M128.721 46.7507L123.743 60.5116L120.667 68.9565V68.9845C118.902 73.4419 117.087 73.3022 115.081 72.972L114.081 78.7425C121.908 79.8219 124.438 75.2705 126.969 68.8905C128.401 65.3728 135.181 46.7507 135.181 46.7507H128.721Z" fill="white"/>
<path d="M137.099 63.4501C136.44 63.4597 135.799 63.6603 135.256 64.0269C134.712 64.3935 134.292 64.9096 134.046 65.5105C133.801 66.1113 133.742 66.7701 133.876 67.4039C134.01 68.0377 134.333 68.6184 134.802 69.0728C135.271 69.5273 135.867 69.8353 136.514 69.9581C137.161 70.081 137.83 70.0132 138.438 69.7633C139.046 69.5134 139.565 69.0925 139.93 68.5535C140.295 68.0146 140.49 67.3816 140.49 66.7342C140.488 66.2995 140.398 65.8695 140.226 65.469C140.054 65.0685 139.804 64.7052 139.489 64.4001C139.173 64.095 138.8 63.854 138.39 63.691C137.98 63.528 137.541 63.4461 137.099 63.4501Z" fill="white"/>
<path d="M123.358 59.4347L118.959 46.7507H112.419L120.3 67.9685L123.358 59.4347Z" fill="white"/>
<path d="M65.352 63.6381C63.3461 63.6381 62.8214 62.4164 62.8214 60.3998V53.4279H56.4705V62.4164C56.4705 67.1075 59.1923 69.594 64.0621 69.594C66.784 69.594 68.9319 68.6086 70.1261 67.4834L68.0247 62.6984C67.394 63.2622 66.2101 63.6381 65.352 63.6381Z" fill="white"/>
<path d="M42.8046 64.0673C42.5461 64.0673 42.3031 64.0673 42.055 64.0673C40.4317 63.9734 38.4363 63.0362 37.9503 61.8628L33.3183 64.2959C34.0653 66.9983 38.1287 69.5635 42.8046 69.6854V64.0673Z" fill="white"/>
<path d="M45.1102 55.5233C44.5364 55.3506 44.035 55.1931 43.6007 55.0458V60.7884C45.0456 61.2964 45.6014 61.6189 45.635 62.513C45.6686 63.3638 44.7458 63.826 43.6007 63.9962V69.6829C48.6618 69.5305 52.1797 66.8053 52.3193 62.8406C52.4641 59.4143 50.5048 57.164 45.1102 55.5233Z" fill="white"/>
<path d="M6.34831 36.5253H0V69.3603H6.34831V36.5253Z" fill="white"/>
<path d="M13.7642 55.3023C13.8526 55.8056 13.8959 56.3155 13.8934 56.8263V69.3502H20.2417V57.0701C20.2417 54.1797 19.6782 51.8507 18.6365 50.116L13.7642 55.3023Z" fill="white"/>
<path d="M13.5238 54.4058L18.1764 49.4404C16.7005 47.4517 14.4776 46.4231 11.686 46.4231C10.0539 46.4188 8.46911 46.9617 7.19355 47.9622V53.687C7.87077 52.7016 8.90987 52.2393 10.1583 52.2393C11.7764 52.2393 12.9603 52.887 13.5238 54.4058Z" fill="white"/>
<path d="M81.6105 19.5948C81.4947 20.2917 81.4368 20.9967 81.4373 21.7029C81.4373 28.2226 86.4519 33.3861 93.0871 33.3861C97.2874 33.3861 100.676 31.3212 102.586 28.1794L97.3365 25.6396C96.4267 26.9095 94.9482 27.6715 93.0871 27.6715C90.4609 27.6715 88.6929 26.1704 87.9795 23.9658H103.297C103.436 23.223 103.501 22.4683 103.488 21.713C103.488 21.0078 103.439 20.3035 103.341 19.6049L81.6105 19.5948Z" fill="white"/>
<path d="M30.7878 46.7507H24.4395V69.3603H30.7878V46.7507Z" fill="white"/>
<path d="M27.6395 36.6117C26.936 36.6072 26.247 36.8077 25.6596 37.188C25.0722 37.5682 24.6127 38.1111 24.3393 38.748C24.0658 39.3848 23.9907 40.087 24.1234 40.7658C24.2562 41.4446 24.5908 42.0695 25.0849 42.5614C25.5791 43.0534 26.2106 43.3903 26.8996 43.5296C27.5886 43.6688 28.3042 43.6042 28.9558 43.3439C29.6075 43.0836 30.1659 42.6392 30.5606 42.0671C30.9552 41.4949 31.1683 40.8206 31.1729 40.1294C31.1777 39.67 31.0899 39.2142 30.9146 38.7882C30.7393 38.3623 30.4799 37.9747 30.1515 37.6477C29.823 37.3207 29.432 37.0608 29.0008 36.883C28.5697 36.7052 28.107 36.613 27.6395 36.6117Z" fill="white"/>
</svg>
