<svg width="141" height="106" viewBox="0 0 141 106" fill="none" xmlns="http://www.w3.org/2000/svg">
<g clip-path="url(#clip0_46_5617)">
<path d="M5.4468 79.0213C5.17557 78.9727 4.90086 78.946 4.62533 78.9415C4.34984 78.9465 4.07518 78.9732 3.80387 79.0213H3.65555V78.873C3.724 77.3898 3.79246 75.8838 3.79246 74.4006V71.4342C3.79246 70.2933 3.79246 69.1523 3.79246 68.0114C2.5997 68.0087 1.40764 68.0697 0.221368 68.1939H0.0388184V68.0228C0.0884824 67.8561 0.11535 67.6834 0.118685 67.5094C0.112723 67.3394 0.0858985 67.1708 0.0388184 67.0074V66.8477H0.198549C1.68175 66.8477 3.16495 66.9389 4.64815 66.9389C6.13135 66.9389 7.61456 66.9389 9.09776 66.8477H9.25749V67.0074C9.20048 67.1727 9.16968 67.346 9.16621 67.5208C9.17043 67.6909 9.19729 67.8598 9.24608 68.0228L9.30312 68.1939H9.12058C7.9381 68.07 6.74985 68.009 5.56089 68.0114C5.56089 69.1523 5.50385 70.2933 5.50385 71.4342V74.4006C5.50385 75.8838 5.5723 77.3898 5.64076 78.873V79.0213H5.49244H5.4468Z" fill="white"/>
<path d="M21.9788 79.0216C21.7075 78.9735 21.4328 78.9468 21.1573 78.9418C20.8818 78.9468 20.6072 78.9735 20.3359 79.0216H20.1875V78.8733C20.256 77.3901 20.3244 75.8841 20.3244 74.4009V72.9976C19.1835 72.9976 18.0426 72.9976 16.8332 72.9976C15.6923 72.9976 14.5514 72.9976 13.3306 72.9976V74.4351C13.3306 75.9183 13.399 77.4243 13.4675 78.9075V79.0559H13.3192C13.0479 79.0078 12.7732 78.9811 12.4977 78.976C12.2222 78.9811 11.9476 79.0078 11.6762 79.0559H11.5279V78.9075C11.5964 77.4243 11.6648 75.9183 11.6648 74.4351V71.4687C11.6648 69.9855 11.5964 68.4909 11.5279 66.9963V66.8594H11.6762C11.9476 66.9075 12.2222 66.9342 12.4977 66.9392C12.765 66.9405 13.032 66.9215 13.2964 66.8822H13.4447V67.0191C13.3762 68.5137 13.3078 70.0083 13.3078 71.4915V71.9821C14.4487 71.9821 15.5896 71.9821 16.8104 71.9821C17.9513 71.9821 19.0922 71.9821 20.3016 71.9821V71.4915C20.3016 70.0083 20.2332 68.5137 20.1647 67.0191V66.8822H20.313C20.5843 66.9303 20.859 66.957 21.1345 66.9621C21.41 66.957 21.6847 66.9303 21.956 66.8822H22.1043V67.0191C22.0358 68.5137 21.9674 70.0083 21.9674 71.4915V74.4579C21.9674 75.9411 22.0358 77.4472 22.1043 78.9304V79.0787H21.956L21.9788 79.0216Z" fill="white"/>
<path d="M32.0303 79.0329C31.0149 79.0329 29.9767 78.9416 28.927 78.9416C27.8774 78.9416 26.8505 78.9416 25.7895 79.0329H25.664V78.9073C25.7324 77.4013 25.8009 75.9067 25.8009 74.4235V71.4457C25.8009 69.9739 25.7324 68.4679 25.664 66.9961V66.8706H25.8465C26.8848 66.8706 27.9002 66.9619 28.9384 66.9619C29.9653 66.9619 30.9807 66.9619 32.0075 66.8706H32.1558V67.0189C32.139 67.182 32.139 67.3464 32.1558 67.5095C32.1389 67.6764 32.1389 67.8446 32.1558 68.0115V68.1598H31.9961C30.5699 68.0572 29.7143 67.9317 27.5807 67.9317C27.5807 68.6276 27.5123 69.2095 27.5123 70.0081C27.5123 70.8296 27.5123 71.7081 27.5123 72.1759C29.4747 72.1759 30.5814 72.0846 31.574 72.0048H31.7337V72.1531C31.7168 72.3238 31.7168 72.4958 31.7337 72.6665C31.7168 72.8296 31.7168 72.994 31.7337 73.1571V73.3168H31.574C30.433 73.2027 28.4022 73.1685 27.5009 73.1685C27.5009 73.5564 27.5009 74.047 27.5009 75.553C27.5009 76.7624 27.5009 77.5725 27.5009 78.0288C29.0253 78.0672 30.5506 77.9947 32.0646 77.8121H32.2357V77.9832C32.1998 78.1482 32.1807 78.3164 32.1786 78.4852C32.18 78.6466 32.1992 78.8072 32.2357 78.9644V79.1127L32.0303 79.0329Z" fill="white"/>
<path d="M49.5093 67.0074V66.8477H49.669C49.8939 66.8972 50.1233 66.924 50.3536 66.9275C50.5164 66.9251 50.678 66.8982 50.8328 66.8477H51.0039V67.0302C50.867 68.6275 50.7301 71.6624 50.6959 74.1838C50.6959 77.2757 48.8362 79.2723 45.6872 79.2723C44.9903 79.3346 44.2881 79.2545 43.6231 79.0368C42.9582 78.8191 42.3445 78.4683 41.8195 78.0059C41.3735 77.4834 41.0358 76.8774 40.8262 76.2232C40.6167 75.569 40.5393 74.8796 40.5987 74.1952C40.5987 73.1227 40.6786 72.3241 40.6786 71.4684C40.6786 69.5745 40.6101 68.0456 40.5759 66.996V66.8591H40.7128C41.0032 66.9078 41.2969 66.9345 41.5913 66.9389C41.8329 66.9355 42.0736 66.9088 42.3101 66.8591H42.4698V67.0188C42.3671 68.0228 42.2644 70.3731 42.2644 72.9288C42.2644 75.3019 42.2644 78.2113 46.0067 78.2227C46.6741 78.2761 47.3408 78.1114 47.9066 77.7534C48.4724 77.3954 48.9067 76.8635 49.1442 76.2375C49.5259 75.068 49.6846 73.8373 49.612 72.6093C49.612 69.3235 49.612 67.6577 49.5093 67.0074Z" fill="white"/>
<path d="M64.8091 79.2496H64.5581V79.1355L64.6494 79.0671L64.5581 79.1355V79.2496C61.991 76.2262 58.9219 72.9859 56.024 69.9054C56.024 70.5558 56.024 71.537 56.024 73.1228C56.024 74.606 56.0924 78.257 56.1723 78.9302V79.1013H56.0012C55.815 79.0516 55.6234 79.0248 55.4307 79.0214C55.2232 79.0277 55.0168 79.0544 54.8146 79.1013H54.6549V78.9302C54.7918 78.1315 55.02 73.7047 55.02 71.4343C55.02 69.2551 55.02 67.578 54.9629 66.8135V66.6538H55.4193C58.1461 69.6202 61.8199 73.6249 63.9534 75.7812C63.9534 72.7692 63.9534 69.5289 63.8165 66.9505V66.7907H63.9648C64.1473 66.8396 64.335 66.8664 64.5239 66.8706C64.7018 66.8704 64.8787 66.8434 65.0487 66.7907H65.2084V66.9619C65.1057 67.9659 64.9346 71.3886 64.9346 72.7349C64.9346 74.492 64.9346 78.3141 64.9346 79.0899V79.204L64.8091 79.2496Z" fill="white"/>
<path d="M70.4795 79.0215C70.2082 78.9729 69.9335 78.9462 69.658 78.9416C69.3825 78.9467 69.1079 78.9734 68.8365 79.0215H68.6882V78.8846C68.7567 77.4014 68.8251 75.8954 68.8251 74.4122V71.4458C68.8251 69.9626 68.7567 68.4679 68.6882 66.9733V66.8364H68.8365C69.1079 66.8845 69.3825 66.9112 69.658 66.9163C69.9335 66.9118 70.2082 66.885 70.4795 66.8364H70.6278V66.9733C70.5593 68.4679 70.4909 69.9626 70.4909 71.4458V74.4122C70.4909 75.8954 70.5593 77.4014 70.6278 78.8846V79.0329H70.4795V79.0215Z" fill="white"/>
<path d="M73.0466 66.9961C73.6389 67.1025 74.2455 67.1025 74.8378 66.9961C75.8647 70.0538 77.325 73.7161 78.774 77.2074C80.0404 74.4007 81.98 69.2209 82.6988 66.9961C83.1181 67.1023 83.5573 67.1023 83.9766 66.9961C82.1816 70.9665 80.5234 74.9369 79.0022 78.9073C78.816 78.8576 78.6244 78.8308 78.4317 78.8275C78.239 78.8299 78.0473 78.8567 77.8613 78.9073C76.823 76.0664 74.7237 70.9209 73.0466 66.9961Z" fill="white"/>
<path d="M92.7617 79.0329C91.7463 79.0329 90.7081 78.9416 89.6584 78.9416C88.6088 78.9416 87.5705 78.9416 86.5209 79.0329H86.3954V78.9073C86.4638 77.4013 86.5323 75.9067 86.5323 74.4235V71.4457C86.5323 69.9739 86.4638 68.4679 86.3954 66.9961V66.8706H86.5209C87.5591 66.8706 88.5746 66.9505 89.6128 66.9505C90.6396 66.9505 91.655 66.9505 92.6819 66.8706H92.8302V67.0189C92.8133 67.182 92.8133 67.3464 92.8302 67.5095C92.8133 67.6764 92.8133 67.8446 92.8302 68.0115V68.1598H92.6705C91.2443 68.0572 90.3886 67.9317 88.2551 67.9317C88.2551 68.6276 88.1866 69.2095 88.1866 70.0081C88.1866 70.8296 88.1866 71.7081 88.1866 72.1759C90.149 72.1759 91.2557 72.0846 92.2483 72.0048H92.4081V72.1531C92.3907 72.3238 92.3907 72.4958 92.4081 72.6665C92.3912 72.8296 92.3912 72.994 92.4081 73.1571V73.3168H92.2483C91.1074 73.2027 89.0766 73.1685 88.1752 73.1685C88.1752 73.5564 88.1752 74.047 88.1752 75.553C88.1752 76.7624 88.1752 77.5725 88.1752 78.0288C89.6997 78.0669 91.2249 77.9944 92.7389 77.8121H92.9101V77.9832C92.8983 78.1541 92.8983 78.3257 92.9101 78.4966C92.8988 78.6523 92.8988 78.8087 92.9101 78.9644V79.1127L92.7617 79.0329Z" fill="white"/>
<path d="M106.225 78.2455L106.156 78.1885V78.1086C106.335 77.6247 106.443 77.1174 106.476 76.6026V76.4999H106.852V76.5684C107.074 77.0798 107.441 77.5153 107.907 77.8214C108.373 78.1274 108.919 78.2907 109.476 78.2912C109.79 78.3009 110.103 78.2457 110.395 78.1288C110.687 78.012 110.952 77.8361 111.172 77.6122C111.393 77.3883 111.565 77.1213 111.678 76.8278C111.79 76.5343 111.841 76.2207 111.827 75.9066C111.827 74.412 110.56 73.9785 109.191 73.408C107.822 72.849 106.384 72.1302 106.396 69.9852C106.396 68 107.913 66.5625 110.252 66.5625C111.202 66.5155 112.137 66.811 112.888 67.3953L112.956 67.4638V67.5437C112.742 67.9969 112.589 68.4764 112.5 68.9698V69.0611H112.112V68.9812C112 68.5454 111.749 68.1579 111.397 67.8778C111.045 67.5977 110.611 67.4403 110.161 67.4296C109.886 67.4121 109.61 67.452 109.352 67.5468C109.093 67.6416 108.857 67.7892 108.658 67.9802C108.46 68.1712 108.303 68.4015 108.198 68.6563C108.094 68.9112 108.043 69.185 108.05 69.4604C108.05 70.9893 109.317 71.4342 110.697 71.9819C112.055 72.5181 113.492 73.1798 113.492 75.1536C113.504 75.7173 113.397 76.2771 113.178 76.7968C112.96 77.3165 112.635 77.7845 112.224 78.1706C111.813 78.5567 111.326 78.8522 110.793 79.0381C110.261 79.2239 109.696 79.296 109.134 79.2495C108.074 79.2841 107.038 78.9266 106.225 78.2455Z" fill="white"/>
<path d="M118.056 79.0215C117.781 78.9734 117.502 78.9467 117.223 78.9416C116.948 78.9467 116.673 78.9734 116.402 79.0215H116.253V78.8846C116.322 77.4014 116.39 75.8954 116.39 74.4122V71.4458C116.39 69.9626 116.322 68.4679 116.253 66.9733V66.8364H116.402C116.673 66.8845 116.948 66.9112 117.223 66.9163C117.502 66.9113 117.781 66.8846 118.056 66.8364H118.193V66.9733C118.124 68.4679 118.056 69.9626 118.056 71.4458V74.4122C118.056 75.8954 118.124 77.4014 118.193 78.8846V79.0329H118.056V79.0215Z" fill="white"/>
<path d="M125.928 79.0214C125.657 78.9733 125.382 78.9466 125.107 78.9415C124.828 78.9466 124.549 78.9733 124.274 79.0214H124.137V78.8845C124.206 77.4013 124.285 75.8953 124.285 74.4121V71.4457C124.285 70.3047 124.285 69.1638 124.228 68.0229C123.036 68.0209 121.844 68.0818 120.657 68.2054L120.543 68.2511V68.0799C120.598 67.9145 120.625 67.7409 120.623 67.5665C120.623 67.3961 120.596 67.2267 120.543 67.0645V66.9048H120.692C122.175 66.9048 123.669 66.9961 125.153 66.9961C126.636 66.9961 128.119 66.9961 129.602 66.9048H129.671V67.0645C129.623 67.2317 129.596 67.4041 129.591 67.5779C129.595 67.7481 129.622 67.9169 129.671 68.0799V68.2511H129.499C128.313 68.1268 127.121 68.0659 125.928 68.0685C125.928 69.2094 125.928 70.3504 125.928 71.4913V74.4577C125.928 75.9409 125.997 77.4469 126.065 78.9301V79.0784H125.917L125.928 79.0214Z" fill="white"/>
<path d="M130.812 67.1103L130.675 66.8821H130.937C131.243 66.9313 131.552 66.958 131.861 66.962C132.175 66.9581 132.487 66.9314 132.797 66.8821H132.877V66.9506C133.858 68.8673 134.907 70.7727 136.06 72.7579C137.22 70.8861 138.275 68.9511 139.22 66.962V66.8707H139.311C139.525 66.9181 139.743 66.9448 139.962 66.9506C140.181 66.9465 140.399 66.9197 140.612 66.8707L140.897 66.8022L140.738 67.0532C138.558 70.3961 137.315 72.3928 136.573 73.8303C136.573 75.5189 136.573 77.835 136.71 78.896V79.0444H136.562C136.29 78.9963 136.016 78.9696 135.74 78.9645C135.461 78.9701 135.183 78.9968 134.907 79.0444H134.759V78.8846C134.896 77.6752 134.896 75.8612 134.896 74.0243C134.177 72.7921 131.473 68.1143 130.709 67.0532L130.812 67.1103Z" fill="white"/>
<path d="M6.73605 95.6334C6.58809 97.1641 5.91958 98.5978 4.84212 99.6951C4.529 100.071 4.13884 100.376 3.69797 100.588C3.2571 100.801 2.77577 100.917 2.28645 100.927C1.14553 100.927 0.392516 100.083 0.506608 98.5542C0.667015 97.0176 1.35198 95.5832 2.44618 94.4925C2.76206 94.147 3.14378 93.8681 3.56894 93.6722C3.9941 93.4762 4.45412 93.3672 4.92198 93.3516C6.18841 93.3516 6.80451 94.2985 6.73605 95.6334ZM3.48442 94.7777C2.54243 96.105 1.93212 97.6386 1.70458 99.2501C1.70458 99.8776 1.90994 100.391 2.43477 100.391C2.95959 100.391 3.26764 100.231 3.8381 99.4669C4.70275 98.1479 5.27106 96.6571 5.50386 95.0972C5.50386 94.5495 5.41258 93.9563 4.78507 93.9563C4.43139 93.9563 4.00924 94.116 3.48442 94.8119V94.7777Z" fill="white"/>
<path d="M11.0145 94.2643C10.9118 94.5723 10.7635 95.1428 10.5467 95.93C10.0105 97.9266 9.53131 99.638 8.96085 101.635C8.72419 102.676 8.25627 103.651 7.59174 104.487C7.01868 105.059 6.2552 105.4 5.4468 105.445C4.48843 105.445 4.14615 104.841 4.14615 104.578C4.15039 104.421 4.18943 104.267 4.26046 104.127C4.33149 103.987 4.43273 103.864 4.55688 103.768C4.62062 103.723 4.69942 103.705 4.77628 103.718C4.85313 103.731 4.92186 103.774 4.96762 103.837C5.31218 104.244 5.79625 104.509 6.32531 104.578C6.679 104.578 7.05551 104.441 7.46624 103.072C8.2877 100.243 8.91521 97.1736 9.74809 94.2643H8.26489C8.22692 94.2135 8.19993 94.1555 8.18563 94.0937C8.17134 94.032 8.17006 93.968 8.18186 93.9058C8.19367 93.8435 8.21831 93.7844 8.25421 93.7322C8.29011 93.68 8.33649 93.6358 8.39039 93.6025H9.87359C10.225 92.0568 10.9061 90.6052 11.8702 89.3469C12.2073 88.8922 12.6458 88.5225 13.1509 88.267C13.6559 88.0115 14.2136 87.8773 14.7796 87.8751C15.1108 87.8524 15.438 87.9584 15.693 88.1709C15.948 88.3834 16.1113 88.6861 16.1487 89.016C16.1487 89.4724 15.6695 90.0314 15.3843 90.0314C15.099 90.0314 15.1561 89.8717 15.1332 89.7462C15.1332 88.765 14.5856 88.4455 14.1406 88.4455C13.8672 88.4972 13.609 88.6103 13.3857 88.7763C13.1624 88.9424 12.9797 89.157 12.8514 89.4039C12.0653 90.6882 11.5021 92.0962 11.1857 93.5683H13.4675C13.4998 93.6235 13.5207 93.6847 13.529 93.7481C13.5373 93.8115 13.5328 93.876 13.5158 93.9377C13.4988 93.9993 13.4696 94.057 13.43 94.1072C13.3903 94.1574 13.341 94.1992 13.285 94.23L11.0145 94.2643Z" fill="white"/>
<path d="M19.4573 98.3146C18.4149 100.616 17.5676 103.002 16.9245 105.445C16.5518 105.347 16.1688 105.294 15.7836 105.286C15.38 105.3 14.9788 105.353 14.5856 105.445C17.0386 100.197 21.0661 91.2979 22.9942 86.4033C23.2201 86.4466 23.4489 86.4733 23.6788 86.4832C23.8794 86.4862 24.0794 86.4593 24.272 86.4033C26.3713 92.1079 32.384 105.343 32.4411 105.445C31.911 105.342 31.3724 105.289 30.8324 105.286C30.2471 105.29 29.6631 105.343 29.0867 105.445C28.3577 103 27.4383 100.616 26.3371 98.3146H19.4573ZM22.8801 90.214L20.0278 96.9569H25.8465L22.9029 90.214H22.8801Z" fill="white"/>
<path d="M42.1503 105.445C41.8765 105.445 38.5336 105.342 37.8262 105.342C37.1189 105.342 36.4571 105.342 34.9169 105.445C35.0994 102.695 35.2363 100.813 35.2363 94.5607C35.2363 90.5104 35.2363 89.4722 35.0196 86.5742C36.5142 86.5742 37.986 86.6541 39.4806 86.6541C44.3523 86.6541 46.965 86.6541 49.4979 88.6735C50.4961 89.5019 51.2864 90.5525 51.8055 91.7413C52.3245 92.93 52.558 94.2239 52.4871 95.5191C52.4871 102.365 47.5925 105.445 42.1503 105.445ZM46.714 89.3353C44.8087 87.8977 42.4926 87.8977 40.3134 87.8977C39.5134 87.8821 38.7132 87.9164 37.9175 88.0004C37.8148 90.5104 37.7806 93.2829 37.7806 95.7929C37.7806 100.767 37.7806 101.338 37.8605 104.03C38.8288 104.156 39.8048 104.213 40.7812 104.202C42.7369 104.324 44.6853 103.868 46.3832 102.889C48.916 101.098 49.4408 98.0177 49.4408 95.8385C49.5214 94.6152 49.3147 93.39 48.8372 92.2608C48.3598 91.1316 47.6249 90.1298 46.6912 89.3353H46.714Z" fill="white"/>
<path d="M64.3755 94.6405C64.3144 94.9488 64.2801 95.2618 64.2729 95.5761C64.2729 95.8727 64.3527 96.1123 64.3755 96.4089C62.9786 96.2382 61.5728 96.1506 60.1655 96.1465C59.4239 96.1465 58.6367 96.1465 57.9636 96.1465C57.9636 97.2874 57.9065 98.5425 57.9065 99.7176C57.9065 101.132 57.9636 103.14 57.9864 103.928C60.3747 103.955 62.7628 103.852 65.14 103.62C65.0731 103.923 65.0387 104.233 65.0373 104.544C65.037 104.836 65.0715 105.127 65.14 105.411C63.8858 105.278 62.6244 105.225 61.3635 105.251C59.2642 105.251 57.1421 105.331 55.0428 105.411C55.2139 103.369 55.3508 101.6 55.3508 95.6673C55.3508 92.9519 55.3508 89.2782 55.1341 86.6084C57.0394 86.7795 58.9105 86.7795 60.8387 86.7795C62.2306 86.7795 63.5883 86.7795 64.9802 86.6084C64.9114 86.9234 64.8732 87.2444 64.8661 87.5668C64.8692 87.8593 64.9075 88.1505 64.9802 88.4339C63.5525 88.1565 62.0985 88.0379 60.6447 88.0802C59.6635 88.0802 59.1843 88.0802 58.0092 88.0802C58.0092 89.1413 58.0092 89.5976 58.0092 91.2063C58.0092 92.815 58.0092 93.3056 58.0092 94.7432C60.1485 94.8157 62.2902 94.751 64.4212 94.5492L64.3755 94.6405Z" fill="white"/>
<path d="M74.4499 103.95C76.0947 103.953 77.7377 103.842 79.3673 103.62C79.3025 103.912 79.2681 104.21 79.2646 104.51C79.2633 104.82 79.2977 105.131 79.3673 105.434C77.6103 105.434 76.458 105.274 73.4916 105.274C71.0956 105.274 70.4225 105.354 68.9279 105.434C69.1446 102.011 69.1789 99.0673 69.1789 95.5076C69.1789 91.9479 69.0077 87.7721 68.9507 86.6084C69.4342 86.7138 69.9276 86.7674 70.4225 86.7681C70.9965 86.7656 71.5692 86.7121 72.1339 86.6084C71.8943 93.568 71.8943 95.4277 71.8943 103.882C73.2063 103.939 73.7426 103.939 74.4271 103.939L74.4499 103.95Z" fill="white"/>
<path d="M84.9008 98.3146C83.8583 100.616 83.011 103.002 82.3679 105.445C81.9948 105.349 81.6121 105.296 81.227 105.286C80.8426 105.303 80.4606 105.357 80.0861 105.445C82.5048 100.174 86.5323 91.2979 88.4719 86.4033C88.694 86.446 88.919 86.4726 89.145 86.4832C89.3494 86.487 89.5533 86.4601 89.7497 86.4033C91.8376 92.1079 97.8503 105.343 97.9073 105.445C97.3774 105.341 96.8387 105.287 96.2986 105.286C95.7171 105.29 95.1369 105.343 94.5644 105.445C93.8353 103 92.916 100.616 91.8148 98.3146H84.9008ZM88.3235 90.214L85.4598 96.9569H91.2557L88.3235 90.214Z" fill="white"/>
<path d="M101.216 86.6201C101.709 86.7401 102.215 86.7938 102.722 86.7798C103.251 86.7938 103.781 86.7401 104.296 86.6201C104.137 89.8603 104.08 93.1006 104.08 96.3294C104.08 101.235 104.182 103.403 104.274 105.457C103.716 105.361 103.151 105.307 102.585 105.297C102.098 105.302 101.613 105.355 101.136 105.457C101.33 102.49 101.41 101.11 101.41 95.7703C101.41 91.857 101.41 91.606 101.216 86.6429V86.6201Z" fill="white"/>
<path d="M116.653 105.445C116.379 105.445 113.025 105.342 112.317 105.342C111.61 105.342 110.959 105.342 109.408 105.445C109.602 102.695 109.739 100.813 109.739 94.5607C109.739 90.5104 109.739 89.4722 109.522 86.5742C111.016 86.5742 112.488 86.6541 113.983 86.6541C118.855 86.6541 121.467 86.6541 124 88.6735C124.998 89.5019 125.789 90.5525 126.308 91.7413C126.827 92.93 127.06 94.2239 126.989 95.5191C126.989 102.365 122.095 105.445 116.653 105.445ZM121.216 89.3353C119.311 87.8977 117.006 87.8977 114.827 87.8977C114.027 87.8815 113.227 87.9158 112.431 88.0004C112.317 90.5104 112.294 93.2829 112.294 95.7929C112.294 100.767 112.294 101.338 112.374 104.03C113.339 104.156 114.311 104.213 115.284 104.202C117.251 104.33 119.212 103.874 120.92 102.889C123.453 101.098 123.966 98.0177 123.966 95.8385C124.049 94.6149 123.844 93.3888 123.366 92.2592C122.889 91.1296 122.152 90.128 121.216 89.3353Z" fill="white"/>
<path d="M139.939 94.6407C139.878 94.949 139.843 95.262 139.836 95.5762C139.836 95.8729 139.916 96.1125 139.939 96.4091C138.542 96.238 137.136 96.1503 135.729 96.1467C134.987 96.1467 134.2 96.1467 133.527 96.1467C133.527 97.2876 133.47 98.5426 133.47 99.7178C133.47 101.133 133.527 103.141 133.55 103.928C135.938 103.951 138.326 103.845 140.703 103.608C140.637 103.912 140.602 104.222 140.601 104.532C140.6 104.825 140.635 105.116 140.703 105.4C139.449 105.267 138.188 105.214 136.927 105.24C134.828 105.24 132.706 105.32 130.606 105.4C130.777 103.357 130.914 101.589 130.914 95.6561C130.914 92.9407 130.857 89.2669 130.697 86.5972C132.603 86.7683 134.474 86.7683 136.402 86.7683C137.794 86.7683 139.152 86.7683 140.544 86.5972C140.475 86.9122 140.437 87.2332 140.43 87.5555C140.433 87.8481 140.471 88.1392 140.544 88.4226C139.116 88.1453 137.662 88.0267 136.208 88.069C135.238 88.069 134.748 88.069 133.573 88.069C133.573 89.13 133.573 89.5864 133.573 91.1951C133.573 92.8038 133.573 93.2944 133.573 94.732C135.712 94.8045 137.854 94.7397 139.985 94.538L139.939 94.6407Z" fill="white"/>
<path d="M0.130096 82.7864H140.509V82.4897H0.130096V82.7864Z" fill="white"/>
<path d="M104.65 78.8388C103.703 77.7664 101.022 74.2751 100.086 73.1342C101.433 72.8946 103.509 71.9933 103.509 69.7114C103.542 69.2637 103.453 68.8155 103.252 68.4139C103.051 68.0124 102.746 67.6724 102.368 67.4296C101.573 66.993 100.673 66.7838 99.767 66.8249C99.1053 66.8249 98.4435 66.9048 97.8046 66.9048C97.1657 66.9048 96.4926 66.9048 95.8422 66.8249H95.7167V66.9504C95.7852 68.445 95.8536 69.9396 95.8536 71.4228V74.3892C95.8536 75.8724 95.7852 77.3784 95.7167 78.8616V79.01H95.8536C96.125 78.9619 96.3996 78.9352 96.6751 78.9301C96.9544 78.9351 97.2328 78.9618 97.508 79.01H97.6449V78.8616C97.5764 77.3784 97.508 75.8724 97.508 74.3892V73.2483H97.9986C99.6061 75.0408 101.082 76.9473 102.414 78.9529V79.0214H102.494C102.818 78.9627 103.146 78.9322 103.475 78.9301C103.815 78.9327 104.155 78.9632 104.49 79.0214H104.81L104.593 78.7818L104.65 78.8388ZM98.5576 72.4268C98.2103 72.4311 97.8632 72.4082 97.5194 72.3584V71.4685C97.5194 70.2591 97.5194 69.0497 97.6107 67.8289C98.13 67.7751 98.6517 67.7484 99.1737 67.749C100.315 67.749 101.741 68.1712 101.741 69.894C101.741 71.8564 99.961 72.4154 98.5576 72.4268Z" fill="white"/>
<path d="M81.7518 23.6069H80.531V22.1009H78.9223V20.6291L78.1921 20.8915C76.9539 21.4067 75.6189 21.648 74.2787 21.5989C71.8486 21.5989 70.7533 22.1579 70.2513 22.5801C69.7607 22.1579 68.6654 21.5989 66.2466 21.5989C64.9141 21.6447 63.5872 21.4035 62.3561 20.8915L61.6145 20.6177V22.1009H59.983V23.6069H58.3743V39.2261H68.8708C68.8765 39.5673 69.0139 39.8931 69.2541 40.1355C69.4943 40.3778 69.8189 40.518 70.16 40.5268C70.4942 40.5223 70.8148 40.3937 71.0594 40.166C71.304 39.9382 71.4552 39.6276 71.4835 39.2946L71.6432 39.2147H82.1283V23.6069H81.7518Z" fill="black"/>
<path d="M91.2329 0.811035V20.2067H49.361V0.811035H91.2329Z" fill="#005A9C"/>
<path d="M95.6597 40.7661C90.7651 41.8272 86.749 43.6412 84.2504 45.8889V45.9573H84.1249L85.8933 49.9049C81.1515 52.0693 75.9747 53.1117 70.7647 52.9512H70.5479C65.3122 53.1128 60.1103 52.0583 55.3508 49.8707L56.9823 46.0828L57.0622 45.9231C54.5522 43.6412 50.5361 41.8614 45.653 40.8003V47.0526C47.5286 47.5219 49.2827 48.3853 50.7985 49.5855L50.2167 50.7264L49.0757 53.0082L48.8475 53.4418C52.9549 57.127 61.1923 59.7397 70.5251 59.7397H70.7419C80.1317 59.7397 88.3463 57.127 92.4194 53.4418L90.5369 49.5398C92.0483 48.3487 93.7938 47.4895 95.6597 47.0184V40.7661Z" fill="#D40000"/>
<path d="M52.0878 52.8488V52.9286C51.9395 53.2025 51.9166 53.3622 52.0878 53.4535C52.2589 53.5447 52.3502 53.4535 52.4415 53.3166C52.5327 53.1796 52.4415 52.9515 52.316 52.7119C52.1853 52.5043 52.089 52.277 52.0307 52.0387C51.9974 51.8507 52.0172 51.6571 52.0878 51.4797C52.1354 51.3778 52.2041 51.2872 52.2892 51.2137C52.3743 51.1402 52.474 51.0855 52.5817 51.0532C52.6894 51.0209 52.8027 51.0117 52.9142 51.0262C53.0257 51.0407 53.1329 51.0786 53.2287 51.1374C53.3344 51.1806 53.4296 51.246 53.5079 51.3292C53.5862 51.4124 53.6457 51.5114 53.6825 51.6195C53.7193 51.7276 53.7324 51.8424 53.721 51.9561C53.7097 52.0697 53.6741 52.1796 53.6166 52.2783V52.3582L53.0462 52.0615C53.1717 51.8219 53.1603 51.6622 53.0462 51.5938C53.018 51.5786 52.987 51.5695 52.9551 51.567C52.9232 51.5646 52.8912 51.5689 52.861 51.5797C52.8309 51.5904 52.8034 51.6074 52.7802 51.6295C52.7571 51.6516 52.7389 51.6783 52.7267 51.7078C52.624 51.9132 52.7267 52.0615 52.8978 52.3468C53.0327 52.5425 53.1259 52.7638 53.1717 52.9971C53.1782 53.1816 53.1306 53.3641 53.0348 53.5219C52.9887 53.6394 52.9173 53.7453 52.8256 53.832C52.7338 53.9187 52.624 53.984 52.5041 54.0232C52.3842 54.0625 52.257 54.0747 52.1318 54.0591C52.0065 54.0434 51.8863 54.0002 51.7797 53.9327C51.6614 53.8858 51.5554 53.8124 51.4699 53.7182C51.3843 53.6239 51.3215 53.5114 51.2863 53.3891C51.251 53.2668 51.2443 53.138 51.2665 53.0127C51.2888 52.8874 51.3394 52.7689 51.4146 52.6662C51.4383 52.6129 51.469 52.563 51.5059 52.5179L52.065 52.826L52.0878 52.8488Z" fill="white"/>
<path d="M55.3508 52.2096L54.632 53.9667C54.4837 54.3546 54.4153 54.5713 54.632 54.6512C54.8488 54.7311 54.9287 54.5485 55.077 54.1948L55.7844 52.4264L56.4461 52.6888L55.8072 54.2747C55.8072 54.3546 55.8072 54.423 55.7159 54.4915C55.6407 54.7455 55.5035 54.9768 55.3166 55.1646C55.178 55.2568 55.0153 55.3061 54.8488 55.3061C54.6824 55.3061 54.5196 55.2568 54.381 55.1646C54.2387 55.1254 54.1095 55.0486 54.0071 54.9422C53.9047 54.8358 53.8328 54.7037 53.7992 54.5599C53.8081 54.1849 53.9059 53.8174 54.0844 53.4875L54.7005 51.9814L55.3508 52.2439V52.2096Z" fill="white"/>
<path d="M57.5984 54.2749L57.7924 53.6131H57.8608C57.9091 53.6174 57.9558 53.6326 57.9974 53.6577C58.0389 53.6827 58.0742 53.7168 58.1006 53.7575C58.127 53.7982 58.1438 53.8443 58.1497 53.8925C58.1556 53.9406 58.1504 53.9894 58.1347 54.0353C58.0662 54.2749 57.9065 54.3433 57.6441 54.2635L57.5984 54.2749ZM56.389 55.8379L57.1877 56.0775C57.3217 56.1398 57.4677 56.1721 57.6155 56.1721C57.7633 56.1721 57.9093 56.1398 58.0434 56.0775C58.2648 55.9496 58.4283 55.7412 58.4998 55.4957C58.5527 55.3595 58.5636 55.2107 58.531 55.0683C58.4985 54.926 58.424 54.7966 58.3172 54.697C58.4355 54.6539 58.5423 54.5841 58.6294 54.4931C58.7164 54.4021 58.7814 54.2923 58.8192 54.1722C58.8619 54.0528 58.8716 53.9242 58.8476 53.7998C58.8235 53.6753 58.7664 53.5596 58.6823 53.4648C58.4838 53.2947 58.2436 53.1805 57.9863 53.1339L57.2561 52.9058L56.389 55.8151V55.8379ZM57.2219 55.5299L57.4501 54.7769C57.7467 54.8682 57.8608 55.0165 57.781 55.2675C57.77 55.3256 57.7456 55.3803 57.7096 55.4272C57.6735 55.4741 57.627 55.5119 57.5736 55.5375C57.5203 55.563 57.4617 55.5756 57.4026 55.5743C57.3435 55.573 57.2855 55.5578 57.2333 55.5299H57.2219Z" fill="white"/>
<path d="M62.8809 56.1913C62.8864 56.2406 62.8864 56.2903 62.8809 56.3396C62.7554 57.0698 62.3789 57.355 61.74 57.241C61.5769 57.2257 61.4209 57.1667 61.2884 57.0704C61.1559 56.974 61.0518 56.8438 60.987 56.6933C60.8782 56.2975 60.8782 55.8797 60.987 55.4839C61.0187 55.0788 61.1479 54.6874 61.3635 54.343C61.4795 54.2277 61.6244 54.1457 61.7829 54.1056C61.9415 54.0654 62.1079 54.0686 62.2648 54.1148C62.9152 54.2289 63.1776 54.6511 63.0407 55.3813L62.3561 55.2558C62.4246 54.8678 62.3561 54.6967 62.1736 54.6511C61.991 54.6054 61.8199 54.8792 61.7058 55.541C61.5803 56.2369 61.5232 56.545 61.8085 56.602C62.0937 56.6591 62.1279 56.4879 62.1964 56.1229C62.1909 56.0774 62.1909 56.0314 62.1964 55.9859L62.8809 56.1114V56.1913Z" fill="white"/>
<path d="M63.691 57.5036L64.3869 57.5835L64.5353 56.3741H64.6379C64.9118 56.3741 64.9574 56.5566 64.9232 56.8989C64.9232 56.9788 64.9232 57.0815 64.9232 57.207C64.9004 57.3468 64.9004 57.4893 64.9232 57.6291L65.7561 57.7318C65.5849 57.5492 65.642 57.2982 65.6762 56.8989C65.7104 56.4996 65.6762 56.3513 65.4024 56.1687C65.5379 56.1117 65.6542 56.0168 65.7371 55.8954C65.8201 55.774 65.8663 55.6312 65.8701 55.4842C65.8925 55.3673 65.8877 55.2468 65.856 55.132C65.8244 55.0173 65.7668 54.9113 65.6876 54.8224C65.4426 54.6534 65.1524 54.5619 64.8547 54.56L64.0561 54.4688L63.7024 57.4922L63.691 57.5036ZM64.6379 55.8265L64.7292 55.0849H64.8205C65.1057 55.0849 65.2084 55.2218 65.1742 55.4842C65.14 55.7466 65.0145 55.8607 64.7292 55.8265H64.6379Z" fill="white"/>
<path d="M67.4903 54.8225L67.3762 56.7165C67.3762 57.1386 67.3762 57.3554 67.5929 57.3782C67.8097 57.401 67.8439 57.1843 67.8668 56.7963L67.9809 54.9024H68.6882L68.5855 56.6138C68.5915 56.6897 68.5915 56.766 68.5855 56.842C68.5928 57.1058 68.5381 57.3676 68.4258 57.6064C68.3184 57.7218 68.187 57.8125 68.041 57.8719C67.8949 57.9314 67.7376 57.9582 67.5801 57.9506C67.4226 57.943 67.2686 57.9011 67.1289 57.8279C66.9893 57.7546 66.8673 57.6518 66.7715 57.5265C66.6598 57.157 66.6325 56.7671 66.6916 56.3856L66.7943 54.7427H67.5017L67.4903 54.8225Z" fill="white"/>
<path d="M71.4835 56.8419V57.0016C71.4835 57.7318 71.164 58.0855 70.4909 58.0855C70.3272 58.1011 70.1624 58.0723 70.0138 58.002C69.8652 57.9317 69.7383 57.8226 69.6466 57.6862C69.4261 56.9066 69.4261 56.0812 69.6466 55.3017C69.737 55.1673 69.8624 55.0603 70.0091 54.9919C70.1559 54.9235 70.3185 54.8965 70.4795 54.9137C71.1412 54.9137 71.4721 55.2788 71.4721 56.0547H70.7875C70.7875 55.6667 70.7077 55.4956 70.4909 55.4956C70.2741 55.4956 70.1943 55.7808 70.1828 56.454C70.1828 57.1614 70.1828 57.4808 70.4795 57.4808C70.7761 57.4808 70.7761 57.3097 70.7761 56.9332V56.8419H71.4835Z" fill="white"/>
<path d="M72.3506 54.9021L74.0049 54.8223L74.0392 55.4041L73.0922 55.4498L73.115 56.0088L73.9935 55.9632L74.0163 56.5793L73.1492 56.6135L73.1835 57.2867L74.1304 57.2296L74.1647 57.8457L72.5103 57.937L72.3506 54.9021Z" fill="white"/>
<path d="M76.7203 57.595L76.3096 54.5944L77.0055 54.4917L77.3364 56.899L78.1921 56.785L78.272 57.3896L76.7203 57.595Z" fill="white"/>
<path d="M79.2304 54.1266L79.6069 55.9977C79.6981 56.4084 79.7438 56.6252 79.9834 56.5681C80.223 56.5111 80.1773 56.3171 80.0975 55.9406L79.721 54.0809L80.4169 53.9326L80.7478 55.6212C80.7531 55.6933 80.7531 55.7658 80.7478 55.838C80.8094 56.0968 80.8094 56.3664 80.7478 56.6252C80.6565 56.9218 80.4169 57.093 79.9948 57.1842C79.8466 57.2362 79.6865 57.2434 79.5343 57.2048C79.3821 57.1663 79.2446 57.0837 79.1391 56.9675C78.9372 56.6509 78.8122 56.2914 78.774 55.9178L78.4545 54.3205L79.1505 54.1722L79.2304 54.1266Z" fill="white"/>
<path d="M81.2156 53.7158L82.174 53.4305L82.8015 54.5715C82.8015 54.5715 82.9156 54.8339 83.0981 55.2218C83.0296 54.7882 82.9954 54.5486 82.9954 54.503L82.8927 53.2252L83.8397 52.9399L84.7068 55.8493L84.0679 56.0318L83.4518 53.75L83.6572 56.1345L83.1437 56.2943L82.0028 54.1835L82.733 56.4654L82.0827 56.6594L81.2156 53.75V53.7158Z" fill="white"/>
<path d="M84.5813 52.6433L86.0987 52.0044L86.3269 52.5406L85.4598 52.9171L85.6766 53.4305L86.4752 53.0883L86.7148 53.6473L85.9162 53.9896L86.1672 54.6057L87.0343 54.2292L87.2739 54.7997L85.7565 55.4386L84.5813 52.6433Z" fill="white"/>
<path d="M86.7719 51.6849L87.4108 51.3084L88.8711 52.6319C88.5289 52.1299 88.2665 51.7533 88.1067 51.4909L87.8671 51.0802L88.4148 50.7607L89.9436 53.3849L89.3047 53.7614L87.8101 52.3923C88.0945 52.7569 88.3574 53.1379 88.5973 53.5332L88.8597 53.9782L88.3007 54.2976L86.7719 51.6735V51.6849Z" fill="white"/>
<path d="M69.9318 36.9443C69.59 36.5249 69.1607 36.185 68.674 35.9486C68.1873 35.7121 67.6548 35.5847 67.1138 35.5752L66.1554 35.6665C65.1171 35.7806 63.691 35.9289 63.0064 35.9289H61.5917V22.9224H60.8044V36.8074H63.0064C63.6568 36.8074 65.1057 36.6591 66.0755 36.5564L67.1138 36.4537C68.0894 36.3116 69.0843 36.5089 69.9318 37.0128V36.9443Z" fill="white"/>
<path d="M78.9223 22.9224V35.9175H77.519C76.823 35.9175 75.4083 35.7692 74.37 35.6551L73.4117 35.5638C72.8703 35.5717 72.3373 35.6985 71.8504 35.935C71.3634 36.1716 70.9344 36.5123 70.5936 36.9329V37.0014C71.4438 36.4714 72.4548 36.2611 73.4459 36.4081L74.4841 36.5108C75.4539 36.6135 76.9029 36.7618 77.5532 36.7618H79.7438V22.9224H78.9223Z" fill="white"/>
<path d="M67.1137 34.7421L66.0755 34.8334C65.1057 34.9361 63.6568 35.0844 63.0064 35.0844H62.4131V21.8154C63.6401 22.2619 64.9418 22.4672 66.2467 22.4201C69.3043 22.4201 69.8748 23.3671 69.8748 23.3785V23.4812V35.6548C69.0746 35.0238 68.0749 34.7001 67.0567 34.7421H67.1137Z" fill="white"/>
<path d="M78.1008 35.0844H77.519C76.8686 35.0844 75.4197 34.9361 74.4499 34.8334L73.4116 34.7421C72.3795 34.7023 71.3674 35.0343 70.5593 35.6777V23.4812V23.3785C70.5593 23.3785 71.1526 22.4201 74.2217 22.4201C75.5228 22.4674 76.8208 22.2621 78.0438 21.8154V35.0844H78.1008Z" fill="white"/>
<path d="M66.4748 26.2193C65.4114 26.2598 64.3469 26.1755 63.3031 25.9683V26.3904C64.3523 26.5858 65.4196 26.6661 66.4862 26.63H67.2507C67.8438 26.6438 68.4318 26.7438 68.9963 26.9266V26.4931C68.4355 26.3294 67.8571 26.2337 67.2735 26.2079L66.4748 26.2193Z" fill="black"/>
<path d="M66.5205 27.8739C65.4467 27.9184 64.371 27.8803 63.3031 27.7598V28.1819C64.3748 28.3026 65.4546 28.337 66.5319 28.2846H67.2278C67.827 28.2946 68.4205 28.4025 68.9849 28.604V28.1705C68.422 27.9814 67.833 27.8813 67.2393 27.8739H66.5205Z" fill="black"/>
<path d="M66.5661 29.5397C65.4792 29.596 64.39 29.596 63.3031 29.5397V29.9504C64.3938 30.0068 65.4868 30.0068 66.5775 29.9504H67.1822C67.7981 29.9515 68.4088 30.0635 68.9849 30.2813V29.8363C68.4132 29.6355 67.811 29.5351 67.205 29.5397H66.5661Z" fill="black"/>
<path d="M66.6003 31.2621H66.2467C65.3111 31.2621 64.0561 31.4104 63.3031 31.399V31.8097C64.0903 31.8097 65.3339 31.7413 66.2695 31.6728H66.6346H67.1594C67.7814 31.6589 68.3994 31.7755 68.9735 32.0151V31.5587C68.3918 31.3496 67.7775 31.2453 67.1594 31.2507H66.6003V31.2621Z" fill="black"/>
<path d="M67.1252 32.9621L66.1097 33.0534C65.2655 33.1447 64.0333 33.2702 63.3031 33.3044V33.7151C64.0447 33.7151 65.2883 33.5554 66.1554 33.4641L67.1252 33.3728C67.7566 33.3466 68.3855 33.4677 68.9621 33.7265V33.2816C68.3771 33.0541 67.7526 32.9455 67.1252 32.9621Z" fill="black"/>
<path d="M66.4292 24.5651C65.6213 24.5796 64.8141 24.507 64.0218 24.3483V23.2872C63.7801 23.2464 63.5432 23.1814 63.3145 23.0933V24.5879C64.3257 24.881 65.377 25.0119 66.4292 24.9758C67.3005 24.9545 68.17 25.066 69.0077 25.3067V24.8959C68.1659 24.6777 67.2986 24.5741 66.4292 24.5879V24.5651Z" fill="black"/>
<path d="M74.1076 25.0327C75.1671 25.0634 76.2251 24.9326 77.2452 24.6448V24.2112C76.2289 24.519 75.1689 24.6578 74.1076 24.622C73.512 24.6191 72.9171 24.661 72.3278 24.7475V23.5381L71.9171 23.6294L71.5862 23.732V25.3407C72.4073 25.1166 73.2567 25.0128 74.1076 25.0327Z" fill="black"/>
<path d="M74.0734 26.2767H73.2748C72.703 26.3 72.136 26.3919 71.5862 26.5505V26.9841C72.1404 26.8073 72.7162 26.7075 73.2976 26.6874H74.062C75.129 26.7206 76.1965 26.6364 77.2452 26.4364V26.0371C76.2025 26.2537 75.1378 26.3456 74.0734 26.3109V26.2767Z" fill="black"/>
<path d="M74.0278 27.9309H73.309C72.7242 27.9345 72.1433 28.0268 71.5862 28.2047V28.6496C72.1451 28.4414 72.7354 28.3295 73.3318 28.3188H74.0164C75.094 28.3618 76.1733 28.3237 77.2452 28.2047V27.7939C76.1768 27.9086 75.1016 27.9468 74.0278 27.908V27.9309Z" fill="black"/>
<path d="M73.9935 29.585H73.3432C72.7457 29.5927 72.1531 29.6927 71.5862 29.8816V30.3266C72.1535 30.107 72.7578 29.9985 73.366 30.0071H73.9707C75.0615 30.0634 76.1544 30.0634 77.2452 30.0071V29.5964C76.1622 29.6578 75.0765 29.6578 73.9935 29.5964V29.585Z" fill="black"/>
<path d="M74.313 31.342H73.9479H73.3774C72.7664 31.333 72.1591 31.4374 71.5862 31.65V32.095C72.1577 31.86 72.771 31.7436 73.3888 31.7527H73.9137H74.2788C75.2143 31.7527 76.4693 31.901 77.2452 31.8896V31.4675C76.4922 31.4675 75.2486 31.399 74.313 31.3306V31.342Z" fill="black"/>
<path d="M74.4385 33.1107L73.4231 33.008C72.7956 32.9914 72.1712 33.1 71.5862 33.3275V33.7724C72.1657 33.524 72.793 33.4071 73.4231 33.4301L74.3929 33.5214C75.2486 33.6013 76.4922 33.7382 77.2452 33.761V33.3503C76.515 33.3503 75.2828 33.202 74.4385 33.1107Z" fill="black"/>
<path d="M67.1137 37.2864L66.1554 37.3891C65.1171 37.4918 63.691 37.6401 63.0064 37.6401H59.983V24.4282H59.1957V38.3931H63.0064C63.6567 38.3931 65.1057 38.2448 66.0755 38.1421L67.1137 38.0509C67.8467 37.9308 68.5942 37.9308 69.3271 38.0509V37.9938C68.6771 37.4866 67.8694 37.224 67.0453 37.2522L67.1137 37.2864Z" fill="white"/>
<path d="M80.531 24.4282V37.6401H77.519C76.823 37.6401 75.4083 37.4918 74.37 37.3891L73.4117 37.2864C72.5775 37.2798 71.7683 37.5711 71.1298 38.1079C71.8798 37.9452 72.6533 37.922 73.4117 38.0394L74.4499 38.1307C75.4197 38.2334 76.8687 38.3817 77.519 38.3817H81.3183V24.4282H80.531Z" fill="white"/>
<path d="M73.4459 15.0955H74.8264L75.4082 14.1143L75.9787 15.0955H77.3706L76.6861 16.2592L77.3706 17.4115H75.9787L75.4082 18.3927L74.8264 17.4115H73.4459L74.119 16.2592L73.4459 15.0955Z" fill="white"/>
<path d="M78.3176 7.22314L79.1847 8.3983L80.6565 8.31843L80.2344 9.68754L81.2156 10.7714L79.8351 11.3077L79.5841 12.7224L78.3176 12.0378L77.0056 12.711L76.766 11.3191L75.4197 10.7486L76.3781 9.67613L75.9787 8.31843L77.4505 8.37548L78.3176 7.22314Z" fill="white"/>
<path d="M70.3882 3.65186L71.2553 4.8156L72.7271 4.73573L72.3049 6.10484L73.2861 7.20013L71.9056 7.72495L71.6546 9.1397L70.3882 8.45515L69.0647 9.12829L68.8365 7.74777L67.4788 7.1659L68.4486 6.09343L68.0493 4.73573L69.5211 4.80419L70.3882 3.65186Z" fill="white"/>
<path d="M70.4339 12.7451L71.1184 13.7263L72.2936 14.0572L71.5406 14.9927L71.5634 16.1565L70.4339 15.7686L69.2815 16.1679L69.3158 14.9927L68.5856 14.0572L69.7493 13.7149L70.4339 12.7451Z" fill="white"/>
<path d="M67.1023 14.1372L66.0755 13.1332V11.6272H64.5124L63.4057 10.5547L62.299 11.6272H60.793L60.7816 13.0989L59.7206 14.1372L60.7816 15.1868L60.793 16.6586H62.299L63.4057 17.7311L64.5124 16.6586H66.0755V15.1526L67.1023 14.1372Z" fill="white"/>
<path d="M82.9612 34.7537V29.049H83.3263V27.3034H82.9612V25.2954H82.1397V39.2261H71.6546L71.4835 39.306C71.4533 39.6255 71.3051 39.9223 71.0677 40.1383C70.8303 40.3543 70.5209 40.4741 70.2 40.4741C69.879 40.4741 69.5696 40.3543 69.3322 40.1383C69.0948 39.9223 68.9466 39.6255 68.9164 39.306H58.4199V25.2954H57.6327V27.3034H57.3132V29.0262H57.6327V34.7309H57.3132V36.4536H57.6327V39.9449H68.1862C68.3563 40.3669 68.6487 40.7285 69.0259 40.9831C69.403 41.2377 69.8476 41.3737 70.3026 41.3737C70.7577 41.3737 71.2023 41.2377 71.5794 40.9831C71.9566 40.7285 72.249 40.3669 72.4191 39.9449H83.0068V36.4765H83.3719V34.7537H82.9612Z" fill="#D40000"/>
<path d="M68.1406 39.9674H57.5871V36.4762H57.2676V34.7534H57.5871V29.0487H57.2676V27.3031H57.5871V25.2951H58.3743V23.6065H59.983V22.1005H61.5917V20.6173L62.3333 20.8911C63.5715 21.4064 64.9065 21.6477 66.2467 21.5985C68.6654 21.5985 69.7607 22.1576 70.2513 22.5797V20.2979H49.361C49.4523 35.1299 56.3777 45.615 69.8976 51.3538L70.2513 51.5135V41.3479C69.8027 41.3507 69.3633 41.2213 68.9879 40.9758C68.6125 40.7302 68.3178 40.3795 68.1406 39.9674Z" fill="#B38808"/>
<path d="M70.3426 20.2183V22.5001C71.5305 21.758 72.9303 21.4291 74.3244 21.5646C75.6646 21.6137 76.9996 21.3724 78.2378 20.8572L78.968 20.5948V22.0666H80.5767V23.5726H82.1854V25.2611H83.0068V27.2692H83.3719V28.992H83.0068V34.6966H83.3719V36.4194H83.0068V39.9106H72.3734C72.2104 40.3211 71.9317 40.6754 71.5712 40.9306C71.2107 41.1857 70.7839 41.3308 70.3426 41.3482V51.4339L70.7077 51.2742C84.2733 45.5696 91.2443 35.0845 91.2443 20.2183H70.3426Z" fill="white"/>
</g>
<defs>
<clipPath id="clip0_46_5617">
<rect width="140.995" height="104.634" fill="white" transform="translate(0.00457764 0.811035)"/>
</clipPath>
</defs>
</svg>
